
<svg xmlns="http://www.w3.org/2000/svg" viewBox="-22.991 -9.763 199.255 58.579">
  <path d="M0 0h145.15v39.053H0z"/>
  <path d="M3.466 3.466h138.192V35.56H3.466z" fill="#ffdb00"/>
  <path d="M152.268 32.888c.423.45.635.979.635 1.614 0 .635-.212 1.164-.635 1.64-.424.45-.926.661-1.535.661a2.005 2.005 0 01-1.535-.66c-.423-.45-.635-1.006-.635-1.641s.212-1.191.635-1.614c.424-.45.926-.662 1.535-.662.609 0 1.138.212 1.535.662zm.264-.265c-.502-.529-1.085-.767-1.799-.767-.688 0-1.296.264-1.773.767-.502.53-.74 1.138-.74 1.879 0 .74.238 1.375.74 1.878.477.53 1.085.794 1.773.794s1.297-.265 1.8-.794c.502-.529.74-1.138.74-1.878 0-.715-.238-1.35-.74-1.879zm-1.402 1.773c-.106.053-.265.053-.45.053h-.45V33.39h.424c.264 0 .476.027.582.106.132.08.185.212.185.424-.026.238-.106.397-.291.476zm-1.402 1.56h.476v-1.163h.397c.264 0 .45.026.556.106.185.105.264.317.264.661v.238l.027.08v.052h.45v-.026c0-.027-.027-.08-.027-.159v-.423c0-.159-.053-.291-.159-.45a.649.649 0 00-.476-.29c.159-.027.29-.08.397-.133.185-.132.264-.318.264-.582 0-.37-.132-.609-.423-.741a2.515 2.515 0 00-.767-.106h-.98zm-13.865-9.048c-.158-1.032-.74-2.302-1.72-3.545-1.455-1.852-3.174-2.884-4.391-2.725v-.027h-8.943c-4.048-4.366-8.229-8.89-9.102-9.922-1.587-1.878-2.593-1.905-2.963-1.825H13.547c-2.17-.053-3.202.555-3.678 1.164-.662.873-.635 2.143.106 3.783H10c.476 1.085 1.376 2.25 2.54 3.334 2.196 1.958 4.577 2.831 5.874 2.223h5.927c4.127 4.445 8.44 9.128 9.34 10.186 1.587 1.879 2.725 1.693 2.857 1.693h93.795c.45.08 3.572.635 5.027-1.005.635-.82.82-1.932.502-3.334zm-2.513-3.043l.053.053c.291.37.529.741.714 1.085h-3.81a9.662 9.662 0 01-.608-1.138zm-5.847 3.943a9.53 9.53 0 01-.477-.53h3.916c.185.186.37.371.556.53zm4.55.45c.133.105.265.185.397.264h-4.26c-.079-.08-.158-.185-.238-.264zm-5.476-1.456a9.278 9.278 0 00-.503-.529h3.995c.053.053.08.106.133.159.105.132.211.238.317.37zm-.926-1.005c-.186-.185-.37-.397-.556-.609h4.26c.106.212.238.397.37.609zm3.942-4.18c.476-.371 1.905.185 3.387 1.799h-3.414c-.185-.53-.238-.98-.211-1.297.026-.238.106-.397.238-.503zm-.503 3.121h-4.445c-.212-.211-.423-.45-.635-.66h4.763c.105.21.211.449.317.66zm-5.477-1.11c-.132-.16-.29-.318-.423-.477h5.318c.027.159.08.318.132.476zm4.948-2.117c-.053.158-.106.317-.132.502 0 .106-.027.212-.027.318 0 .106 0 .238.027.344h-5.689c-.344-.397-.714-.768-1.085-1.164zm-17.595-10.24c.106.132.265.318.476.53H18.574a113.058 113.058 0 01-1.111-1.191h92.895c.185.158.397.37.608.661zm-93.239.98c.265.29.582.634.926 1.005h-1.852c-.132-.133-.265-.265-.397-.37a14.87 14.87 0 00-.74-.61h2.063zm-2.699-.45a6.555 6.555 0 00-1.005-.583h2.699c.158.16.344.37.555.582zm93.795-2.038l.08-.026s.317-.027.9.396h-92.79c-.106-.105-.159-.185-.186-.211l-.079-.08c-.026-.026-.053-.053-.08-.053zm-92.525.98h-3.333a3.183 3.183 0 00-.477-.133h3.678c.026 0 .08.053.132.132zm-1.349-.848c.317.053.53.133.714.238h-4.445c.609-.317 1.72-.502 3.731-.238zm-4.34.715h.08c-.026 0-.08 0-.08.026zm-.079 1.72c-.026-.291.053-.53.186-.688.132-.16.37-.238.688-.265 1.031-.053 2.592.688 4.021 1.852h-4.683a2.95 2.95 0 01-.212-.9zm.424 1.375h5c.582.556 1.085 1.112 1.456 1.667h-5.292c-.476-.555-.873-1.111-1.164-1.667zm2.222 2.752c-.211-.185-.423-.397-.635-.609h5.186a4.77 4.77 0 01.635 1.456h-4.1c-.371-.265-.742-.53-1.086-.847zm5.265 1.323c0 .238-.053.45-.185.582-.45.503-1.746.265-3.254-.609zm-1.164-4.075h1.8c.476.53 1.005 1.085 1.534 1.667h-2.064a8.706 8.706 0 00-1.27-1.667zm3.784 2.143c.45.477.9.953 1.35 1.456h-3.096c-.053-.45-.239-.953-.503-1.456zm1.799 1.905c.053.08.132.133.185.212h-3.704c0-.08.026-.132.026-.212zm-3.863 1.138c.106-.132.212-.29.265-.45h4.206c.133.16.291.318.424.45zm14.367 8.917c-.291-.318-.635-.715-1.032-1.138h1.138v-.476h-1.561c-.291-.318-.582-.635-.9-1.006h2.46v-.45h-2.883c-.476-.502-.953-1.031-1.482-1.587h4.366v-.45h-4.79c-.37-.423-.767-.846-1.163-1.27h5.953v-.476h-6.377l-.926-1.005h7.303v-.45h-7.726c-.212-.212-.423-.45-.635-.662h8.36v-.476h-8.783c-.186-.212-.37-.397-.556-.609h9.34v-.45h-9.763c-.133-.132-.238-.264-.37-.396H33.47v-.476H22.887c-.186-.212-.371-.397-.556-.609h11.112v-.476H21.908c-.186-.212-.37-.397-.556-.609H33.47v-.476H20.929c-.186-.212-.37-.397-.556-.608H33.47v-.45H19.923c-.318-.344-.635-.688-.926-1.006h92.842c.265.291.556.635.9 1.006h-1.085v.45h1.535c.185.185.37.396.555.608h-2.09v.476h2.514c.185.186.37.397.555.609h-3.069v.476h3.493c.185.185.37.397.555.609h-4.048v.476h4.471c.133.132.239.265.37.397h-4.84v.45h5.264c.185.211.37.396.556.608h-5.82v.476h6.243c.212.212.397.45.609.662h-6.853v.45h7.303c.29.344.608.661.926 1.005h-8.202v.476h8.651c.397.424.794.847 1.165 1.27h-9.843v.45h10.266c.132.159.291.317.423.476h-10.689v.45h11.113c.211.212.423.45.608.661h-11.72v.45h12.17c.185.212.37.397.556.609h-12.727v.846h.027v-.396h13.123c.159.185.344.37.503.529h-13.653v.476h14.076c.185.185.344.37.503.53H33.364zm.423.45h92.895c.186.211.397.423.556.608H34.316c-.132-.159-.317-.344-.529-.609zm2.646 2.063c-.08 0-.688.053-1.693-.979h92.921c.556.582.9.953.9.953zm94.033-.026c-.397-.106-.635-.185-.82-.318h4.498c-1.138.662-3.017.476-3.678.318zm4.207-.768h-5.556c-.106-.105-.265-.29-.503-.529h4.736a2.757 2.757 0 00.74.185c.292.027.556 0 .821-.079a1.344 1.344 0 01-.238.423zm.08-1.349c-.133.106-.318.132-.556.106-.768-.08-2.064-.873-3.281-2.408-.106-.132-.185-.264-.291-.397h3.783c.053.106.106.212.16.344.184.503.343.98.422 1.403.027.45-.053.793-.238.952z"/>
  <path d="M50.112 26.088V13.97h4.551c2.143 0 3.836.635 3.836 3.043a3.42 3.42 0 01-1.243 2.646c1.032.344 1.587 1.455 1.587 2.778 0 2.725-1.614 3.65-4.1 3.65zm3.122-5.054v2.25h1.376c.767 0 1.35-.212 1.35-1.112 0-1.058-.741-1.138-1.72-1.138zm0-4.233v2.01h1.297c.635 0 1.084-.343 1.084-1.057 0-.953-.608-.953-1.27-.953zm14.605 9.287V13.97h3.122v4.101h2.964V13.97h3.122v12.118h-3.122v-4.683H70.96v4.71H67.84zM79.27 13.97h3.122v7.25c0 1.19.186 2.222 1.482 2.222 1.111 0 1.455-.9 1.455-2.222v-7.25h3.122v6.853c0 3.89-1.402 5.582-4.577 5.582-2.963 0-4.604-1.428-4.604-5.609zm17.33 6.615l-.105-2.752V13.97h2.99v12.118h-2.937L93.16 19.5l.106 2.752v3.836h-2.99V13.97h2.937zm4.207-6.615h8.732v3.175h-2.805v8.943h-3.122v-8.943h-2.805zm-55.483 9.128c-.9 0-1.64.741-1.64 1.64 0 .9.74 1.641 1.64 1.641.9 0 1.64-.74 1.64-1.64 0-.926-.714-1.64-1.64-1.64zm15.981 0c-.9 0-1.64.741-1.64 1.64 0 .9.74 1.641 1.64 1.641.9 0 1.64-.74 1.64-1.64 0-.926-.74-1.64-1.64-1.64zm-24.236-.503c.953 1.165 1.879 1.165 2.408 1.006.608-.185.794-.662.794-1.64V13.97h3.122v7.435c0 3.201-1.191 4.842-3.704 5-2.435.133-3.096-.317-4.472-1.825z"/>
</svg>